HIERARCHY
ROOT root
{
	OFFSET	0	13.1	24.9
	CHANNELS 6  Xposition Yposition Zposition Xrotation Yrotation Zrotation
	JOINT spine_1
	{
		OFFSET	0	9.99999	0
		CHANNELS 3  Xrotation Yrotation Zrotation
		JOINT spine_2
		{
			OFFSET	0	112	-10
			CHANNELS 3  Xrotation Yrotation Zrotation
			JOINT spine_3
			{
				OFFSET	0	206.5	19.3
				CHANNELS 3  Xrotation Yrotation Zrotation
				JOINT spine_4
				{
					OFFSET	0	110.4	14.6
					CHANNELS 3  Xrotation Yrotation Zrotation
					JOINT neck_1
					{
						OFFSET	0	71.8	-50.3
						CHANNELS 3  Xrotation Yrotation Zrotation
						JOINT neck_2
						{
							OFFSET	0	86.2	-25.8
							CHANNELS 3  Xrotation Yrotation Zrotation
							JOINT head_ee
							{
								OFFSET	0	179.8	-8.7
								CHANNELS 3  Xrotation Yrotation Zrotation
								End Site
								{
									OFFSET	1	0	0
								}
							}
						}
					}
					JOINT left_clavicle
					{
						OFFSET	-43.2	22.4	-70.8
						CHANNELS 3  Xrotation Yrotation Zrotation
						JOINT left_shoulder
						{
							OFFSET	-93.9	-5.79999	48.7
							CHANNELS 3  Xrotation Yrotation Zrotation
							JOINT left_elbow
							{
								OFFSET	-291.4	-30.8	15.2
								CHANNELS 3  Xrotation Yrotation Zrotation
								JOINT left_lowarm_twist
								{
									OFFSET	-110.7	-3.89999	13.6
									CHANNELS 3  Xrotation Yrotation Zrotation
									JOINT left_hand
									{
										OFFSET	-110.7	-3.89999	13.6
										CHANNELS 3  Xrotation Yrotation Zrotation
										JOINT left_ee
										{
											OFFSET	-80.8	-5.10001	12.1
											CHANNELS 3  Xrotation Yrotation Zrotation
											End Site
											{
												OFFSET	1	0	0
											}
										}
									}
								}
							}
						}
					}
					JOINT right_clavicle
					{
						OFFSET	43.2	22.4	-70.8
						CHANNELS 3  Xrotation Yrotation Zrotation
						JOINT right_shoulder
						{
							OFFSET	93.9	-5.79999	48.7
							CHANNELS 3  Xrotation Yrotation Zrotation
							JOINT right_elbow
							{
								OFFSET	291.4	-30.8	15.2
								CHANNELS 3  Xrotation Yrotation Zrotation
								JOINT right_lowarm_twist
								{
									OFFSET	110.7	-3.89999	13.6
									CHANNELS 3  Xrotation Yrotation Zrotation
									JOINT right_hand
									{
										OFFSET	110.7	-3.89999	13.6
										CHANNELS 3  Xrotation Yrotation Zrotation
										JOINT right_ee
										{
											OFFSET	80.8	-5.10001	12.1
											CHANNELS 3  Xrotation Yrotation Zrotation
											End Site
											{
												OFFSET	1	0	0
											}
										}
									}
								}
							}
						}
					}
				}
			}
		}
	}
	JOINT left_hip
	{
		OFFSET	-82.8	-127.5	0.300001
		CHANNELS 3  Xrotation Yrotation Zrotation
		JOINT left_knee
		{
			OFFSET	-28.2	-396.7	2.2
			CHANNELS 3  Xrotation Yrotation Zrotation
			JOINT left_ankle
			{
				OFFSET	-11.7	-411.3	35.4
				CHANNELS 3  Xrotation Yrotation Zrotation
				JOINT left_toes
				{
					OFFSET	0	-60	-88.6
					CHANNELS 3  Xrotation Yrotation Zrotation
					JOINT left_foot_ee
					{
						OFFSET	-22.5	-16.5	-42.2
						CHANNELS 3  Xrotation Yrotation Zrotation
						End Site
						{
							OFFSET	1	0	0
						}
					}
				}
			}
		}
	}
	JOINT right_hip
	{
		OFFSET	82.8	-127.5	0.300001
		CHANNELS 3  Xrotation Yrotation Zrotation
		JOINT right_knee
		{
			OFFSET	28.2	-396.7	2.2
			CHANNELS 3  Xrotation Yrotation Zrotation
			JOINT right_ankle
			{
				OFFSET	11.7	-411.3	35.4
				CHANNELS 3  Xrotation Yrotation Zrotation
				JOINT right_toes
				{
					OFFSET	0	-60	-88.6
					CHANNELS 3  Xrotation Yrotation Zrotation
					JOINT right_foot_ee
					{
						OFFSET	22.5	-16.5	-42.2
						CHANNELS 3  Xrotation Yrotation Zrotation
						End Site
						{
							OFFSET	1	0	0
						}
					}
				}
			}
		}
	}
}
MOTION
Frames: 8
Frame Time: 0.02
3535.8 751.097 -1487.36 -13.3023 68.317 14.1504 -0.342558 -0.0451974 1.30053 -0.341626 -0.127855 1.29502 -0.344115 -0.40469 1.2368 -0.346192 -0.204299 1.28518 -8.70851 -24.2409 -9.026 -8.84058 -39.4239 -14.5661 -0.0 0.0 -0.0 1.78535 24.0228 5.19157 16.0319 -18.9427 73.2993 1.47256 -36.1071 0.480009 -42.7326 -3.24635 4.24994 -1.39372 6.42313 -6.42749 -0.0 0.0 -0.0 8.96278 21.1125 -17.0067 -24.2666 33.205 -61.4387 0.508687 14.1436 -0.0631066 -24.2789 1.45459 -2.71897 2.9874 15.5509 -13.5211 0.0 0.0 0.0 0.151772 1.63539 0.610452 -5.62055 0.19027 0.841259 37.3104 26.6507 -4.95475 -21.3459 0.0 0.0 -0.0 0.0 -0.0 13.7381 -26.5688 1.31327 -16.4731 -0.320958 -2.4989 27.9525 31.7089 4.64777 -18.6308 0.0 0.0 0.0 0.0 0.0 
3533.14 748.985 -1488.12 -12.5823 68.6878 13.5742 -0.511221 0.175203 1.34629 -0.510217 0.0891885 1.3547 -0.50746 -0.209449 1.34139 -0.509971 0.00500627 1.35763 -9.09814 -24.2361 -9.21229 -9.29154 -39.4141 -14.8909 -0.0 0.0 -0.0 1.76745 23.6812 5.14791 16.4072 -19.848 73.5317 1.53338 -37.2174 0.516324 -43.0161 -3.27748 4.26876 -1.33418 5.93853 -6.25704 -0.0 0.0 -0.0 8.8466 21.4995 -16.7175 -24.4276 33.1769 -61.3974 0.513532 14.2728 -0.0642958 -24.2431 1.45162 -2.71547 3.05108 16.1411 -13.674 0.0 0.0 0.0 -0.0331399 1.83416 0.736167 -6.00622 0.200286 0.899598 37.2549 26.59 -4.94699 -21.4844 0.0 0.0 -0.0 0.0 -0.0 13.5352 -27.7783 0.991724 -16.6592 -0.320454 -2.52744 28.7949 31.0674 4.71861 -19.3376 0.0 0.0 0.0 0.0 0.0 
3526.57 746.15 -1488.54 -11.157 68.6542 11.6416 -0.51552 0.192921 1.48384 -0.5143 0.0981204 1.49311 -0.510955 -0.23112 1.47837 -0.514005 0.00523497 1.49632 -9.41728 -24.2963 -9.33037 -9.66748 -39.5528 -15.1441 -0.0 0.0 -0.0 0.957805 24.4446 4.10418 17.1717 -20.5508 75.2113 1.59813 -38.3647 0.556008 -43.1812 -3.29566 4.27966 -1.32342 4.76173 -6.72063 -0.0 0.0 -0.0 8.70086 21.974 -16.3549 -24.087 33.5958 -62.3635 0.468454 13.0649 -0.0536427 -24.5314 1.47556 -2.74361 3.02909 15.7604 -13.7068 0.0 0.0 0.0 -0.22011 1.86232 0.759197 -7.90876 0.243929 1.18829 37.8519 26.0456 -4.99002 -21.9433 0.0 0.0 -0.0 0.0 -0.0 13.0397 -26.5533 1.28535 -16.4901 -0.320916 -2.5015 30.4833 30.6225 4.90585 -19.269 0.0 0.0 0.0 0.0 0.0 
3525.26 747.558 -1490.22 -10.2837 67.9566 10.8423 -0.501537 0.409048 1.50021 -0.50034 0.312768 1.52319 -0.491056 -0.0276502 1.55472 -0.494363 0.218206 1.53958 -9.77229 -24.3328 -9.31454 -10.0978 -39.7475 -15.2843 -0.0 0.0 -0.0 0.303541 24.5603 3.23901 17.4008 -21.426 76.2938 1.62672 -38.8599 0.57385 -42.2639 -3.19508 4.21847 -1.23472 3.68047 -6.62113 -0.0 0.0 -0.0 8.90377 22.3792 -16.7698 -23.0642 33.9726 -62.6756 0.440382 12.3066 -0.0474778 -24.6191 1.48287 -2.75215 3.04207 15.0926 -14.1172 0.0 0.0 0.0 -0.0787124 1.92725 0.68059 -9.27577 0.269356 1.39651 36.9979 26.4584 -4.91609 -21.7801 0.0 0.0 -0.0 0.0 -0.0 13.1976 -27.4894 0.7347 -16.8208 -0.319941 -2.55223 31.3093 27.7527 4.83569 -19.7062 0.0 0.0 0.0 0.0 0.0 
3522.35 745.959 -1495.38 -10.6513 68.0982 11.3173 -0.396847 0.468115 1.50369 -0.395665 0.371495 1.53042 -0.384769 0.0310223 1.57454 -0.38812 0.279273 1.5499 -10.0127 -24.3451 -9.36303 -10.3842 -39.815 -15.4311 -0.0 0.0 -0.0 -0.810089 24.7066 1.77143 18.1321 -21.6983 77.3004 1.62253 -38.7877 0.571219 -42.8127 -3.25514 4.25528 -1.24598 2.93908 -7.02996 -0.0 0.0 -0.0 9.02339 22.8958 -16.9898 -22.2747 34.3863 -62.8451 0.44468 12.423 -0.0483982 -24.6831 1.48821 -2.75837 3.03075 14.5159 -14.3149 0.0 0.0 0.0 0.0515792 1.93898 0.595787 -10.1516 0.283032 1.5302 36.8041 26.4565 -4.89593 -21.8521 0.0 0.0 -0.0 0.0 -0.0 12.5498 -27.395 1.07978 -16.6124 -0.32059 -2.52027 32.7011 28.3317 5.03233 -19.6861 0.0 0.0 0.0 0.0 0.0 
3517.67 740.143 -1500.07 -11.5503 68.1416 11.7584 -0.309948 0.545516 1.50094 -0.308807 0.448913 1.53261 -0.29581 0.108631 1.59329 -0.299174 0.358867 1.55615 -9.39269 -24.5452 -9.0445 -9.67643 -40.2146 -14.9439 -0.0 0.0 -0.0 -1.91286 24.4081 0.253536 17.6871 -22.1247 77.8762 1.67145 -39.621 0.602141 -42.4718 -3.2178 4.23248 -1.29722 2.12089 -7.74132 -0.0 0.0 -0.0 9.29289 23.3055 -17.5521 -20.8685 34.9764 -63.1689 0.378164 10.6105 -0.0351164 -24.7951 1.49758 -2.76925 3.10197 15.0047 -14.5728 0.0 0.0 0.0 0.660035 4.23059 0.495355 -11.6335 0.301511 1.75682 41.078 25.8934 -5.30098 -22.571 0.0 0.0 -0.0 0.0 -0.0 12.5062 -27.3976 0.957578 -16.6905 -0.32036 -2.53224 33.8633 27.4035 5.11029 -19.6258 0.0 0.0 0.0 0.0 0.0 
3509.72 738.053 -1505.13 -6.68429 68.1601 6.33638 -0.753955 0.677682 1.8529 -0.752218 0.558426 1.89224 -0.732008 0.123262 1.96904 -0.737157 0.432631 1.92489 -10.2284 -24.411 -9.32191 -10.6539 -40.0368 -15.5042 -0.0 0.0 -0.0 -2.26069 25.1742 -0.0784899 17.3165 -22.8552 77.6596 1.67413 -39.6662 0.603856 -42.0578 -3.17263 4.20451 -1.53248 1.29151 -9.70032 -0.0 0.0 -0.0 9.72011 23.8769 -18.4518 -19.9069 36.0372 -62.7622 0.374881 10.5205 -0.0345143 -24.3282 1.45868 -2.72379 2.96368 14.0645 -14.0658 0.0 0.0 0.0 2.8007 2.30621 -0.166925 -22.2475 0.262173 3.38258 39.5395 24.9487 -5.12181 -22.4627 0.0 0.0 -0.0 0.0 -0.0 10.4915 -28.3059 2.56045 -18.4767 -0.310657 -2.80612 34.9196 29.841 5.37838 -18.748 0.0 0.0 0.0 0.0 0.0 
3502.54 735.494 -1509.76 -3.29948 67.6975 2.4565 -1.00462 0.743079 1.96418 -1.00269 0.616613 2.00746 -0.978911 0.145355 2.09495 -0.984722 0.47432 2.04574 -9.63879 -24.4712 -8.87669 -9.98316 -40.2639 -14.8702 -0.0 0.0 -0.0 -2.66869 24.0526 -0.828819 15.0977 -23.1449 76.3693 1.66131 -39.45 0.59569 -41.8977 -3.15521 4.1936 -1.5195 0.922421 -9.78121 -0.0 0.0 -0.0 10.1047 25.0816 -19.194 -18.7644 36.7625 -61.6857 0.517748 14.3852 -0.0653392 -24.3392 1.45959 -2.72487 2.94493 13.71 -14.1035 0.0 0.0 0.0 3.06464 3.14433 0.0944999 -27.5831 0.129023 4.19028 39.2201 25.1783 -5.09809 -21.7501 0.0 0.0 -0.0 0.0 -0.0 8.45648 -28.1496 3.63142 -17.3586 -0.31773 -2.63471 37.0045 29.5688 5.58515 -18.2093 0.0 0.0 0.0 0.0 0.0 
